<?xml version="1.0" encoding="utf-8"?>
<!-- Generator: Adobe Illustrator 18.1.1, SVG Export Plug-In . SVG Version: 6.00 Build 0)  -->
<svg version="1.1" id="Capa_1" xmlns="http://www.w3.org/2000/svg" xmlns:xlink="http://www.w3.org/1999/xlink" x="0px" y="0px"
	 viewBox="0 0 612 612" enable-background="new 0 0 612 612" xml:space="preserve">
<g>
	<path fill="#FFFFFF" d="M425.8,554.2h2.7c27.3-17.5,49.5-42.2,64.1-71.3h46.7c38.9,0,70.6-31.7,70.6-70.6s-31.7-70.6-70.6-70.6
		h-27.8V306c0-7.9-6.4-14.3-14.3-14.3H114.8c-7.9,0-14.3,6.4-14.3,14.3v96.7c0,63.5,33.1,119.5,83,151.5h3.8
		c-7.9,0-14.3,6.4-14.3,14.3s6.4,14.3,14.3,14.3h93.2h50.8h94.4c7.9,0,14.3-6.4,14.3-14.3S433.7,554.2,425.8,554.2z M539.2,370.1
		c23.2,0,42.1,18.9,42.1,42.1s-18.9,42.1-42.1,42.1h-35.4c4.9-16.4,7.6-33.7,7.6-51.7v-32.5L539.2,370.1L539.2,370.1z M213.9,137.1
		c22.7-22.7,22.7-59.7,0-82.4l-1.1-1.1c-5.6-5.6-5.6-14.6,0-20.2c5.6-5.6,14.6-5.6,20.2,0l1.1,1.1c33.8,33.8,33.8,88.9,0,122.7
		c-11,11-17.1,25.6-17.1,41.2s6.1,30.2,17.1,41.2c5.6,5.6,5.6,14.6,0,20.2c-2.8,2.8-6.4,4.2-10.1,4.2c-3.7,0-7.3-1.4-10.1-4.2
		c-16.4-16.4-25.4-38.2-25.4-61.4C188.5,175.3,197.5,153.5,213.9,137.1z M296.5,137.1c11-11,17.1-25.6,17.1-41.2
		s-6.1-30.2-17.1-41.2l-1.1-1.1c-5.6-5.6-5.6-14.6,0-20.2c5.6-5.6,14.6-5.6,20.2,0l1.1,1.1c16.4,16.4,25.4,38.2,25.4,61.4
		s-9,45-25.4,61.4c-11,11-17.1,25.6-17.1,41.2s6.1,30.2,17.1,41.2c5.6,5.6,5.6,14.6,0,20.2c-2.8,2.8-6.4,4.2-10.1,4.2
		c-3.7,0-7.3-1.4-10.1-4.2c-16.4-16.4-25.4-38.2-25.4-61.4C271.1,175.3,280.1,153.5,296.5,137.1z M379.1,137.1
		c22.7-22.7,22.7-59.7,0-82.4l-1.1-1.1c-5.6-5.6-5.6-14.6,0-20.2c5.6-5.6,14.6-5.6,20.2,0l1.1,1.1c33.8,33.8,33.8,88.9,0,122.7
		c-11,11-17.1,25.6-17.1,41.2s6.1,30.2,17.1,41.2c5.6,5.6,5.6,14.6,0,20.2c-2.8,2.8-6.4,4.2-10.1,4.2c-3.7,0-7.3-1.4-10.1-4.2
		c-16.4-16.4-25.4-38.2-25.4-61.4C353.6,175.3,362.7,153.5,379.1,137.1z"/>
</g>
</svg>
